<?xml version="1.0" encoding="UTF-8" standalone="no"?>
<!-- Created with Inkscape (http://www.inkscape.org/) -->

<svg
   xmlns:dc="http://purl.org/dc/elements/1.1/"
   xmlns:cc="http://creativecommons.org/ns#"
   xmlns:rdf="http://www.w3.org/1999/02/22-rdf-syntax-ns#"
   xmlns:svg="http://www.w3.org/2000/svg"
   xmlns="http://www.w3.org/2000/svg"
   xmlns:sodipodi="http://sodipodi.sourceforge.net/DTD/sodipodi-0.dtd"
   xmlns:inkscape="http://www.inkscape.org/namespaces/inkscape"
   width="16.828676mm"
   height="9.5805721mm"
   viewBox="0 0 59.629171 33.946909"
   id="svg2"
   version="1.1"
   inkscape:version="0.91 r13725"
   sodipodi:docname="grey cloud 1.svg">
  <defs
     id="defs4">
    <clipPath
       id="clipEmfPath1"
       clipPathUnits="userSpaceOnUse">
      <path
         inkscape:connector-curvature="0"
         id="path3341"
         d="m 4.4748,-1.78992 582.6182,0 0,841.26192 -582.6182,0 z" />
    </clipPath>
    <pattern
       y="0"
       x="0"
       height="6"
       width="6"
       patternUnits="userSpaceOnUse"
       id="EMFhbasepattern" />
    <clipPath
       id="clipEmfPath1-1"
       clipPathUnits="userSpaceOnUse">
      <path
         inkscape:connector-curvature="0"
         id="path6104"
         d="m 0.894959,2.68488 531.606041,0 0,444.79512 -531.606041,0 z" />
    </clipPath>
    <pattern
       y="0"
       x="0"
       height="6"
       width="6"
       patternUnits="userSpaceOnUse"
       id="EMFhbasepattern-6" />
  </defs>
  <sodipodi:namedview
     id="base"
     pagecolor="#ffffff"
     bordercolor="#666666"
     borderopacity="1.0"
     inkscape:pageopacity="0.0"
     inkscape:pageshadow="2"
     inkscape:zoom="1.4"
     inkscape:cx="33.614798"
     inkscape:cy="78.663475"
     inkscape:document-units="px"
     inkscape:current-layer="layer1"
     showgrid="false"
     fit-margin-top="0"
     fit-margin-left="0"
     fit-margin-right="0"
     fit-margin-bottom="0"
     inkscape:window-width="1366"
     inkscape:window-height="705"
     inkscape:window-x="-8"
     inkscape:window-y="-8"
     inkscape:window-maximized="1" />
  <metadata
     id="metadata7">
    <rdf:RDF>
      <cc:Work
         rdf:about="">
        <dc:format>image/svg+xml</dc:format>
        <dc:type
           rdf:resource="http://purl.org/dc/dcmitype/StillImage" />
        <dc:title></dc:title>
      </cc:Work>
    </rdf:RDF>
  </metadata>
  <g
     inkscape:label="Layer 1"
     inkscape:groupmode="layer"
     id="layer1"
     transform="translate(-341.3852,-645.30655)">
    <g
       id="g6280"
       transform="translate(-42.857143,30)">
      <path
         style="fill:#d9d9d9;fill-opacity:1;fill-rule:evenodd;stroke:none"
         d="m 392.23458,627.40671 c -4.81471,0.64714 -8.20872,5.00408 -7.57739,9.75586 0.63162,4.75149 5.0515,8.08228 9.85069,7.45095 4.81471,-0.64714 8.19291,-5.00408 7.56129,-9.75586 -0.63133,-4.75149 -5.03569,-8.08256 -9.83459,-7.45095 z"
         id="path6175"
         inkscape:connector-curvature="0" />
      <path
         style="fill:none;stroke:#000000;stroke-width:0.67880154px;stroke-linecap:butt;stroke-linejoin:round;stroke-miterlimit:4;stroke-dasharray:none;stroke-opacity:1"
         d="m 392.23458,627.40671 c -4.81471,0.64714 -8.20872,5.00408 -7.57739,9.75586 0.63162,4.75149 5.0515,8.08228 9.85069,7.45095 4.81471,-0.64714 8.19291,-5.00408 7.56129,-9.75586 -0.63133,-4.75149 -5.03569,-8.08256 -9.83459,-7.45095"
         id="path6177"
         inkscape:connector-curvature="0" />
      <path
         style="fill:#d9d9d9;fill-opacity:1;fill-rule:evenodd;stroke:none"
         d="m 408.54166,633.05821 c -6.89864,0.93133 -12.02916,5.17765 -11.46076,9.50299 0.5842,4.32562 6.64605,7.10381 13.54441,6.17248 6.89864,-0.91553 12.02915,-5.16213 11.46076,-9.48747 -0.5842,-4.32533 -6.64605,-7.10381 -13.54441,-6.188 z"
         id="path6179"
         inkscape:connector-curvature="0" />
      <path
         style="fill:none;stroke:#000000;stroke-width:0.67880154px;stroke-linecap:butt;stroke-linejoin:round;stroke-miterlimit:4;stroke-dasharray:none;stroke-opacity:1"
         d="m 408.54166,633.05821 c -6.89864,0.93133 -12.02916,5.17765 -11.46076,9.50299 0.5842,4.32562 6.64605,7.10381 13.54441,6.17248 6.89864,-0.91553 12.02915,-5.16213 11.46076,-9.48747 -0.5842,-4.32533 -6.64605,-7.10381 -13.54441,-6.188"
         id="path6181"
         inkscape:connector-curvature="0" />
      <path
         style="fill:#d9d9d9;fill-opacity:1;fill-rule:evenodd;stroke:none"
         d="m 425.82721,631.00589 c -5.90381,0.78938 -10.29237,4.38856 -9.80299,8.06676 0.48937,3.6782 5.66702,6.01444 11.5553,5.24087 5.90409,-0.78938 10.29265,-4.40436 9.80327,-8.08257 -0.48937,-3.66211 -5.6673,-6.01443 -11.55558,-5.22506 z"
         id="path6183"
         inkscape:connector-curvature="0" />
      <path
         style="fill:none;stroke:#000000;stroke-width:0.67880154px;stroke-linecap:butt;stroke-linejoin:round;stroke-miterlimit:4;stroke-dasharray:none;stroke-opacity:1"
         d="m 425.82721,631.00589 c -5.90381,0.78938 -10.29237,4.38856 -9.80299,8.06676 0.48937,3.6782 5.66702,6.01444 11.5553,5.24087 5.90409,-0.78938 10.29265,-4.40436 9.80327,-8.08257 -0.48937,-3.66211 -5.6673,-6.01443 -11.55558,-5.22506"
         id="path6185"
         inkscape:connector-curvature="0" />
      <path
         style="fill:#d9d9d9;fill-opacity:1;fill-rule:evenodd;stroke:none"
         d="m 427.13756,615.64595 c -6.53542,0 -11.8395,3.1098 -11.8395,6.93024 0,3.83597 5.30408,6.92997 11.8395,6.92997 6.53542,0 11.83951,-3.094 11.83951,-6.92997 0,-3.82044 -5.30409,-6.93024 -11.83951,-6.93024 z"
         id="path6187"
         inkscape:connector-curvature="0" />
      <path
         style="fill:none;stroke:#000000;stroke-width:0.67880154px;stroke-linecap:butt;stroke-linejoin:round;stroke-miterlimit:4;stroke-dasharray:none;stroke-opacity:1"
         d="m 427.13756,615.64595 c -6.53542,0 -11.8395,3.1098 -11.8395,6.93024 0,3.83597 5.30408,6.92997 11.8395,6.92997 6.53542,0 11.83951,-3.094 11.83951,-6.92997 0,-3.82044 -5.30409,-6.93024 -11.83951,-6.93024"
         id="path6189"
         inkscape:connector-curvature="0" />
      <path
         style="fill:#d9d9d9;fill-opacity:1;fill-rule:evenodd;stroke:none"
         d="m 431.55773,619.38737 c -5.90409,0.78937 -10.1346,5.55667 -9.45586,10.65558 0.67875,5.11471 6.01444,8.60326 11.90272,7.82997 5.90381,-0.78937 10.1346,-5.55667 9.45586,-10.65558 -0.67874,-5.09891 -6.01444,-8.60354 -11.90272,-7.82997 z"
         id="path6191"
         inkscape:connector-curvature="0" />
      <path
         style="fill:none;stroke:#000000;stroke-width:2.40520239px;stroke-linecap:butt;stroke-linejoin:round;stroke-miterlimit:4;stroke-dasharray:none;stroke-opacity:1"
         clip-path="url(#clipEmfPath1-1)"
         d="m 486.746,143.697 c -20.92,2.797 -35.91,19.689 -33.505,37.756 2.405,18.123 21.311,30.484 42.175,27.744 20.919,-2.797 35.91,-19.689 33.505,-37.756 -2.405,-18.067 -21.311,-30.485 -42.175,-27.744"
         id="path6193"
         inkscape:connector-curvature="0"
         transform="matrix(0.28222222,0,0,0.28222222,294.18719,578.83288)" />
      <path
         style="fill:#d9d9d9;fill-opacity:1;fill-rule:evenodd;stroke:none"
         d="m 405.95255,616.05658 c -5.9038,0.78909 -10.16621,5.27247 -9.53459,10.02397 0.63133,4.73597 5.91961,7.95613 11.8237,7.16703 5.88828,-0.77357 10.16621,-5.25695 9.53487,-10.00845 -0.63161,-4.75149 -5.93569,-7.97193 -11.82398,-7.18255 z"
         id="path6195"
         inkscape:connector-curvature="0" />
      <path
         style="fill:none;stroke:#000000;stroke-width:0.67880154px;stroke-linecap:butt;stroke-linejoin:round;stroke-miterlimit:4;stroke-dasharray:none;stroke-opacity:1"
         d="m 405.95255,616.05658 c -5.9038,0.78909 -10.16621,5.27247 -9.53459,10.02397 0.63133,4.73597 5.91961,7.95613 11.8237,7.16703 5.88828,-0.77357 10.16621,-5.25695 9.53487,-10.00845 -0.63161,-4.75149 -5.93569,-7.97193 -11.82398,-7.18255"
         id="path6197"
         inkscape:connector-curvature="0" />
      <path
         style="fill:#d9d9d9;fill-opacity:1;fill-rule:evenodd;stroke:none"
         d="m 395.97571,621.59745 c -5.52506,0 -9.99236,3.0782 -9.99236,6.89836 0,3.82044 4.4673,6.89864 9.99236,6.89864 5.50955,0 9.99265,-3.0782 9.99265,-6.89864 0,-3.82016 -4.4831,-6.89836 -9.99265,-6.89836 z"
         id="path6199"
         inkscape:connector-curvature="0" />
      <path
         style="fill:none;stroke:#000000;stroke-width:0.67880154px;stroke-linecap:butt;stroke-linejoin:round;stroke-miterlimit:4;stroke-dasharray:none;stroke-opacity:1"
         d="m 395.97571,621.59745 c -5.52506,0 -9.99236,3.0782 -9.99236,6.89836 0,3.82044 4.4673,6.89864 9.99236,6.89864 5.50955,0 9.99265,-3.0782 9.99265,-6.89864 0,-3.82016 -4.4831,-6.89836 -9.99265,-6.89836"
         id="path6201"
         inkscape:connector-curvature="0" />
      <path
         style="fill:#d9d9d9;fill-opacity:1;fill-rule:evenodd;stroke:none"
         d="m 412.17245,621.92878 c -14.11281,2.8575 -24.61063,9.88229 -23.44251,15.70736 1.18392,5.80926 13.57602,8.22452 27.70463,5.3673 14.12861,-2.8417 24.62643,-9.88229 23.4425,-15.69156 -1.1684,-5.82506 -13.5763,-8.22452 -27.70462,-5.3831 z"
         id="path6203"
         inkscape:connector-curvature="0" />
    </g>
  </g>
</svg>
